# xmcd
#
# Track frame offsets:
#	182
#	14460
#	33042
#	44655
#	56317
#	71335
#	87297
#	100495
#	111930
#	125202
#
# Disc length: 1842
#
# Revision: 3
# Processed by: cddbd v1.5.1PL0 Copyright (c) Steve Scherf et al.
# Submitted via: audiograbber 1.80
# Normalized: r2:DSETVAR1
#
DISCID=8507300a
DTITLE=Various Artist - The 101 Greatest Country Hits Vol 8: Country Romance
DYEAR=1900
DGENRE=
TTITLE0=Eddie Rabbit - I Love A Rainy Night
TTITLE1=Juice Newton - The Sweetest Thing (I've Ever Known)
TTITLE2=Freddy Fender - Before The Next Teardrop Falls
TTITLE3=Sammi Smith - Help Me Make It Through The Night
TTITLE4=Waylon Jennings - Luckenbach, Texas (Back To The Basics Of Love)
TTITLE5=Lookin' For Love - Lookin' For Love
TTITLE6=Dolly Parton - I Will Always Love You
TTITLE7=Sonny James - Young Love
TTITLE8=Charlie Rich - Behind Closed Doors
TTITLE9=Bobby Helms - My Special Angel
EXTD=
EXTT0=EDDIE RABBITT  
EXTT1=JUICE NEWTON
EXTT2=FREDDY FENDER
EXTT3=SAMMI SMITH
EXTT4=WAYLON JENNINGS
EXTT5=JOHNNY LEE
EXTT6=DOLLY PARTON
EXTT7=SONNY JAMES
EXTT8=CHARLIE RICH
EXTT9=BOBBY HELMS
PLAYORDER=
